<?xml version="1.0" encoding="UTF-8"?>
<svg id="Layer_1" data-name="Layer 1" xmlns="http://www.w3.org/2000/svg" viewBox="0 0 220 220">
  <defs>
    <style>
      .cls-1 {
        fill: none;
      }

      .cls-2 {
        fill: #7c3aed;
      }
    </style>
  </defs>
  <rect class="cls-1" x="-56.23" y="-56.23" width="332.47" height="332.47"/>
  <g>
    <path class="cls-2" d="M187.37,195.08h0l-118.2-.14c-1.06,0-1.92-.85-1.92-1.92l-.42-118.19c0-.78.47-1.48,1.19-1.79.71-.3,1.55-.14,2.1.41l118.52,118.24c.41.35.67.88.67,1.46,0,1.07-.87,1.92-1.93,1.92h0ZM71.09,191.08l111.6.14-112-111.74.41,111.6Z"/>
    <path class="cls-2" d="M134.89,172.39s-.05,0-.08,0l-41.34-1.82c-1-.04-1.8-.84-1.84-1.83l-1.84-41.34c-.03-.79.43-1.52,1.15-1.85.73-.32,1.57-.16,2.14.4l43.08,43.06c.41.35.67.88.67,1.46,0,1.07-.86,1.92-1.92,1.92h0ZM95.4,166.79l34.62,1.53-36.15-36.15,1.53,34.62Z"/>
    <path class="cls-2" d="M81.11,195.01c-1.07,0-1.93-.86-1.93-1.93v-10.58c0-1.07.86-1.93,1.93-1.93s1.92.86,1.92,1.93v10.58c0,1.06-.86,1.93-1.92,1.93Z"/>
    <path class="cls-2" d="M79.45,98.64h-10.56c-1.07,0-1.93-.86-1.93-1.93s.86-1.93,1.93-1.93h10.56c1.06,0,1.92.86,1.92,1.93s-.86,1.93-1.92,1.93Z"/>
    <path class="cls-2" d="M93.68,195.01c-1.07,0-1.92-.86-1.92-1.93v-10.58c0-1.07.85-1.93,1.92-1.93s1.92.86,1.92,1.93v10.58c0,1.06-.86,1.93-1.92,1.93Z"/>
    <path class="cls-2" d="M79.45,111.26h-10.56c-1.07,0-1.93-.86-1.93-1.93s.86-1.92,1.93-1.92h10.56c1.06,0,1.92.86,1.92,1.92s-.86,1.93-1.92,1.93Z"/>
    <path class="cls-2" d="M106.25,195.01c-1.06,0-1.93-.86-1.93-1.93v-10.58c0-1.07.86-1.93,1.93-1.93s1.92.86,1.92,1.93v10.58c0,1.06-.86,1.93-1.92,1.93Z"/>
    <path class="cls-2" d="M79.45,123.8h-10.56c-1.07,0-1.93-.86-1.93-1.93s.86-1.93,1.93-1.93h10.56c1.06,0,1.92.86,1.92,1.93s-.86,1.93-1.92,1.93Z"/>
    <path class="cls-2" d="M118.84,195.01c-1.07,0-1.93-.86-1.93-1.93v-10.58c0-1.07.86-1.93,1.93-1.93s1.92.86,1.92,1.93v10.58c0,1.06-.86,1.93-1.92,1.93Z"/>
    <path class="cls-2" d="M79.69,136.41h-10.55c-1.07,0-1.94-.86-1.94-1.92s.87-1.93,1.94-1.93h10.55c1.06,0,1.92.87,1.92,1.93s-.86,1.92-1.92,1.92Z"/>
    <path class="cls-2" d="M131.41,195.01c-1.06,0-1.92-.86-1.92-1.93v-10.58c0-1.07.86-1.93,1.92-1.93s1.92.86,1.92,1.93v10.58c0,1.06-.86,1.93-1.92,1.93Z"/>
    <path class="cls-2" d="M79.69,148.95h-10.55c-1.07,0-1.94-.86-1.94-1.93s.87-1.93,1.94-1.93h10.55c1.06,0,1.92.86,1.92,1.93s-.86,1.93-1.92,1.93Z"/>
    <path class="cls-2" d="M143.99,195.01c-1.06,0-1.92-.86-1.92-1.93v-10.58c0-1.07.86-1.93,1.92-1.93s1.94.86,1.94,1.93v10.58c0,1.06-.87,1.93-1.94,1.93Z"/>
    <path class="cls-2" d="M79.69,161.53h-10.55c-1.07,0-1.94-.86-1.94-1.93s.87-1.93,1.94-1.93h10.55c1.06,0,1.92.86,1.92,1.93s-.86,1.93-1.92,1.93Z"/>
    <path class="cls-2" d="M156.56,195.01c-1.07,0-1.93-.86-1.93-1.93v-10.58c0-1.07.86-1.93,1.93-1.93s1.93.86,1.93,1.93v10.58c0,1.06-.87,1.93-1.93,1.93Z"/>
    <path class="cls-2" d="M79.69,174.14h-10.55c-1.07,0-1.94-.86-1.94-1.92s.87-1.93,1.94-1.93h10.55c1.06,0,1.92.87,1.92,1.93s-.86,1.92-1.92,1.92Z"/>
    <path class="cls-2" d="M170.99,150.06c-.49,0-.98-.19-1.36-.56l-58.23-58.24c-.76-.76-.76-1.97,0-2.73.76-.75,1.97-.75,2.73,0l58.23,58.24c.75.75.75,1.97,0,2.73-.38.37-.87.56-1.37.56Z"/>
    <path class="cls-2" d="M193.07,172.14c-.22,0-.43-.04-.65-.12l-20.38-7.29c-.26-.09-.5-.25-.71-.45l-73.68-73.67c-.36-.36-.57-.85-.57-1.37s.21-1,.57-1.36l13.12-13.11c.75-.75,1.97-.75,2.73,0l73.7,73.68c.2.2.35.45.46.71l7.23,20.4c.25.7.07,1.48-.45,2.01-.37.37-.86.57-1.37.57ZM173.75,161.25l16.15,5.78-5.73-16.16-72.04-72-10.39,10.38,72.01,72Z"/>
    <path class="cls-2" d="M99.01,91.18c-.5,0-.99-.19-1.37-.56l-5.44-5.43c-.36-.36-.57-.85-.57-1.36s.21-1,.57-1.37l13.15-13.11c.36-.36.85-.57,1.37-.56.5,0,1,.21,1.36.57l5.41,5.44c.75.75.75,1.97,0,2.73l-13.11,13.11c-.38.37-.87.56-1.36.56ZM96.31,83.82l2.71,2.71,10.39-10.39-2.69-2.71-10.41,10.39Z"/>
    <path class="cls-2" d="M93.57,85.75c-.5,0-.99-.19-1.37-.57l-9.75-9.75c-2.71-2.73-2.7-7.12,0-9.81l6.04-6.03c1.29-1.31,3.04-2.04,4.91-2.04s3.61.72,4.91,2.05l9.76,9.74c.37.36.57.85.57,1.37s-.2,1-.57,1.36l-13.14,13.11c-.39.38-.88.57-1.37.57ZM93.41,61.41c-.83,0-1.61.32-2.18.9l-6.05,6.04c-1.21,1.19-1.2,3.14,0,4.35l8.38,8.39,10.42-10.39-8.4-8.39c-.58-.59-1.36-.91-2.18-.91Z"/>
    <path class="cls-2" d="M193.07,172.14c-.22,0-.43-.04-.65-.12l-20.38-7.29c-.26-.09-.5-.25-.71-.45l-7.52-7.5c-.37-.36-.57-.85-.57-1.36s.2-1,.57-1.37l13.11-13.15c.36-.36.85-.56,1.36-.56h0c.51,0,1.01.2,1.36.56l7.55,7.54c.2.2.35.45.46.71l7.23,20.4c.25.7.07,1.48-.45,2.01-.37.37-.86.57-1.37.57ZM173.75,161.25l16.15,5.78-5.73-16.16-5.87-5.86-10.39,10.41,5.85,5.84Z"/>
    <path class="cls-2" d="M58.95,194.93H26.94c-1.06,0-1.93-.86-1.93-1.92V58.7c0-1.07.87-1.93,1.93-1.93h32.01c1.07,0,1.92.86,1.92,1.93v134.3c0,1.07-.85,1.92-1.92,1.92ZM28.86,191.08h28.15V60.63h-28.15v130.45Z"/>
    <path class="cls-2" d="M39.23,70.35h-12.3c-1.06,0-1.93-.86-1.93-1.93s.87-1.92,1.93-1.92h12.3c1.06,0,1.92.86,1.92,1.92s-.86,1.93-1.92,1.93Z"/>
    <path class="cls-2" d="M45.8,81.78h-18.86c-1.06,0-1.93-.86-1.93-1.92s.87-1.93,1.93-1.93h18.86c1.07,0,1.93.86,1.93,1.93s-.86,1.92-1.93,1.92Z"/>
    <path class="cls-2" d="M39.23,93.22h-12.3c-1.06,0-1.93-.86-1.93-1.93s.87-1.93,1.93-1.93h12.3c1.06,0,1.92.86,1.92,1.93s-.86,1.93-1.92,1.93Z"/>
    <path class="cls-2" d="M45.8,104.65h-18.86c-1.06,0-1.93-.86-1.93-1.93s.87-1.92,1.93-1.92h18.86c1.07,0,1.93.86,1.93,1.92s-.86,1.93-1.93,1.93Z"/>
    <path class="cls-2" d="M39.23,116.12h-12.3c-1.06,0-1.93-.86-1.93-1.93s.87-1.92,1.93-1.92h12.3c1.06,0,1.92.86,1.92,1.92s-.86,1.93-1.92,1.93Z"/>
    <path class="cls-2" d="M45.8,127.52h-18.86c-1.06,0-1.93-.86-1.93-1.93s.87-1.92,1.93-1.92h18.86c1.07,0,1.93.86,1.93,1.92s-.86,1.93-1.93,1.93Z"/>
    <path class="cls-2" d="M39.23,138.99h-12.3c-1.06,0-1.93-.86-1.93-1.93s.87-1.93,1.93-1.93h12.3c1.06,0,1.92.86,1.92,1.93s-.86,1.93-1.92,1.93Z"/>
    <path class="cls-2" d="M45.8,150.42h-18.86c-1.06,0-1.93-.86-1.93-1.93s.87-1.93,1.93-1.93h18.86c1.07,0,1.93.86,1.93,1.93s-.86,1.93-1.93,1.93Z"/>
    <path class="cls-2" d="M39.23,161.85h-12.3c-1.06,0-1.93-.86-1.93-1.92s.87-1.93,1.93-1.93h12.3c1.06,0,1.92.87,1.92,1.93s-.86,1.92-1.92,1.92Z"/>
    <path class="cls-2" d="M45.8,173.29h-18.86c-1.06,0-1.93-.86-1.93-1.93s.87-1.93,1.93-1.93h18.86c1.07,0,1.93.87,1.93,1.93s-.86,1.93-1.93,1.93Z"/>
    <path class="cls-2" d="M39.23,184.72h-12.3c-1.06,0-1.93-.87-1.93-1.93s.87-1.93,1.93-1.93h12.3c1.06,0,1.92.86,1.92,1.93s-.86,1.93-1.92,1.93Z"/>
    <path class="cls-2" d="M138.07,76.67c-2.57,0-5.15-.98-7.12-2.92l-24.84-24.84c-.75-.75-.75-1.97,0-2.73.76-.75,1.97-.75,2.73,0l24.83,24.83c2.44,2.4,6.39,2.4,8.81,0,2.41-2.42,2.41-6.38,0-8.81l-24.84-24.83c-.75-.76-.75-1.97,0-2.73.75-.75,1.97-.75,2.73,0l24.84,24.83c3.92,3.94,3.92,10.33,0,14.26-1.96,1.96-4.54,2.93-7.12,2.93Z"/>
    <path class="cls-2" d="M132.73,85.28c-.49,0-.99-.19-1.37-.56l-36.24-36.23c-2.6-2.59-4.03-6.05-4.03-9.75s1.43-7.17,4.04-9.77c2.58-2.6,6.04-4.04,9.74-4.04h0c3.71,0,7.17,1.43,9.78,4.04l10.63,10.61c.76.75.76,1.97,0,2.73-.75.76-1.98.76-2.73,0l-10.64-10.61c-1.88-1.88-4.38-2.92-7.04-2.92h0c-2.65,0-5.14,1.03-7.02,2.91-1.87,1.88-2.91,4.37-2.91,7.04,0,2.67,1.04,5.17,2.91,7.03l36.24,36.23c.76.76.76,1.97,0,2.73-.38.38-.87.57-1.36.57Z"/>
    <path class="cls-2" d="M118.77,60.74c-.5,0-1-.19-1.37-.57l-15.24-15.22c-1.3-1.29-2.03-3.03-2.03-4.88s.73-3.59,2.03-4.89c1.29-1.3,3.04-2.03,4.89-2.03,0,0,.02,0,.02,0,1.84,0,3.59.73,4.88,2.05l15.21,15.21c.76.76.76,1.97,0,2.73-.75.75-1.97.75-2.73,0l-15.22-15.22c-.58-.59-1.35-.91-2.16-.91-.82-.01-1.59.32-2.17.9-.59.58-.91,1.34-.91,2.16s.32,1.58.89,2.15l15.25,15.23c.76.75.76,1.97,0,2.73-.38.37-.88.57-1.36.57Z"/>
  </g>
</svg>