<?xml version="1.0" encoding="UTF-8"?>
<svg id="Layer_1" data-name="Layer 1" xmlns="http://www.w3.org/2000/svg" viewBox="0 0 220 219.99">
  <defs>
    <style>
      .cls-1 {
        fill: none;
      }

      .cls-2 {
        fill: #d97706;
      }
    </style>
  </defs>
  <rect class="cls-1" x="-56.23" y="-56.24" width="332.46" height="332.46"/>
  <g>
    <path class="cls-2" d="M36.7,125.84c-.35,0-.7-.09-1.01-.27-.74-.44-1.11-1.3-.93-2.14l5.63-25.32h-4.49c-5.02,0-9.11-4.09-9.11-9.12V24.01c0-5.03,4.09-9.11,9.11-9.11h92.73c5.02,0,9.11,4.08,9.11,9.11v64.99c0,5.03-4.09,9.12-9.11,9.12h-59.49l-31.14,27.24c-.37.32-.84.49-1.3.49ZM35.9,18.86c-2.84,0-5.15,2.31-5.15,5.15v64.99c0,2.84,2.31,5.15,5.15,5.15h6.96c.6,0,1.16.27,1.54.74.38.47.52,1.09.39,1.67l-4.85,21.83,27.15-23.75c.36-.31.82-.49,1.31-.49h60.23c2.84,0,5.15-2.31,5.15-5.15V24.01c0-2.84-2.31-5.15-5.15-5.15H35.9Z"/>
    <path class="cls-2" d="M83.85,82.26c-.51,0-1.02-.2-1.4-.58-2.34-2.34-4.67-4.42-6.92-6.43-7.01-6.27-13.07-11.69-13.07-19.9,0-6.44,5.24-11.69,11.69-11.69,4.7,0,7.51,2.02,9.71,5.28,2.19-3.26,5-5.28,9.7-5.28,6.45,0,11.7,5.24,11.7,11.69,0,8.21-6.06,13.62-13.07,19.9-2.26,2.01-4.59,4.1-6.93,6.44-.39.39-.9.58-1.4.58ZM74.14,47.61c-4.26,0-7.72,3.47-7.72,7.73,0,6.44,5.19,11.08,11.75,16.95,1.85,1.65,3.74,3.35,5.68,5.21,1.93-1.87,3.84-3.57,5.69-5.22,6.56-5.87,11.75-10.5,11.75-16.94,0-4.26-3.47-7.73-7.73-7.73-3.67,0-5.6,1.5-7.94,6.19-.33.67-1.02,1.09-1.77,1.09s-1.44-.42-1.78-1.09c-2.34-4.69-4.27-6.19-7.93-6.19Z"/>
    <path class="cls-2" d="M104.06,34.7H28.77c-1.09,0-1.98-.89-1.98-1.98s.89-1.98,1.98-1.98h75.29c1.1,0,1.98.89,1.98,1.98s-.89,1.98-1.98,1.98Z"/>
    <path class="cls-2" d="M119.91,34.7h-3.96c-1.1,0-1.98-.89-1.98-1.98s.89-1.98,1.98-1.98h3.96c1.1,0,1.98.89,1.98,1.98s-.89,1.98-1.98,1.98Z"/>
    <path class="cls-2" d="M183.31,205.09c-.47,0-.94-.17-1.31-.49l-31.14-27.24h-59.49c-5.03,0-9.12-4.09-9.12-9.12v-64.99c0-5.03,4.09-9.11,9.12-9.11h92.72c5.03,0,9.12,4.08,9.12,9.11v64.99c0,5.02-4.09,9.12-9.12,9.12h-4.48l5.59,25.15c.06.19.09.4.09.61,0,1.09-.89,1.98-1.98,1.98h0ZM91.37,98.11c-2.83,0-5.15,2.31-5.15,5.15v64.99c0,2.84,2.32,5.15,5.15,5.15h60.24c.48,0,.94.17,1.3.49l27.15,23.75-4.85-21.83c-.13-.59,0-1.2.39-1.67.37-.47.94-.74,1.55-.74h6.95c2.84,0,5.15-2.32,5.15-5.15v-64.99c0-2.84-2.31-5.15-5.15-5.15h-92.73Z"/>
    <path class="cls-2" d="M136.16,161.51c-.53,0-1.03-.21-1.4-.58-2.35-2.34-4.68-4.43-6.93-6.44-7.02-6.27-13.07-11.68-13.07-19.89,0-6.44,5.25-11.69,11.7-11.69,4.7,0,7.51,2.02,9.71,5.28,2.19-3.26,5-5.28,9.7-5.28,6.44,0,11.69,5.24,11.69,11.69,0,8.21-6.06,13.63-13.07,19.9-2.25,2.01-4.57,4.09-6.92,6.44-.37.37-.88.58-1.4.58ZM126.46,126.86c-4.27,0-7.74,3.46-7.74,7.73,0,6.44,5.19,11.07,11.75,16.94,1.85,1.65,3.75,3.35,5.69,5.22,1.93-1.86,3.83-3.56,5.68-5.21,6.57-5.87,11.75-10.51,11.75-16.95,0-4.26-3.46-7.73-7.72-7.73-3.67,0-5.59,1.5-7.93,6.18-.34.67-1.03,1.1-1.77,1.1s-1.44-.42-1.78-1.1c-2.34-4.68-4.26-6.18-7.93-6.18Z"/>
    <path class="cls-2" d="M191.23,113.96h-75.29c-1.1,0-1.98-.89-1.98-1.98s.89-1.98,1.98-1.98h75.29c1.1,0,1.98.89,1.98,1.98s-.88,1.98-1.98,1.98Z"/>
    <path class="cls-2" d="M104.06,113.96h-3.96c-1.09,0-1.98-.89-1.98-1.98s.89-1.98,1.98-1.98h3.96c1.1,0,1.98.89,1.98,1.98s-.89,1.98-1.98,1.98Z"/>
    <path class="cls-2" d="M151.61,78.29c-1.1,0-1.98-.88-1.98-1.98V28.76c0-1.1.89-1.98,1.98-1.98s1.98.89,1.98,1.98v47.55c0,1.1-.89,1.98-1.98,1.98Z"/>
    <path class="cls-2" d="M68.4,169.43c-1.1,0-1.98-.88-1.98-1.98v-35.66c0-1.1.89-1.98,1.98-1.98s1.98.89,1.98,1.98v35.66c0,1.1-.89,1.98-1.98,1.98Z"/>
  </g>
</svg>