<?xml version="1.0" encoding="UTF-8"?>
<svg id="Layer_1" data-name="Layer 1" xmlns="http://www.w3.org/2000/svg" viewBox="0 0 220 219.99">
  <defs>
    <style>
      .cls-1 {
        fill: none;
      }

      .cls-2 {
        fill: #059669;
      }
    </style>
  </defs>
  <rect class="cls-1" x="-56.23" y="-56.24" width="332.47" height="332.48"/>
  <g>
    <path class="cls-2" d="M94.5,118.22c-.14,0-.27,0-.41-.04l-20.66-4.13c-1.12-.22-1.84-1.31-1.62-2.44.22-1.12,1.32-1.83,2.44-1.62l20.66,4.14c1.12.23,1.84,1.31,1.62,2.43-.19.98-1.06,1.66-2.02,1.66Z"/>
    <path class="cls-2" d="M94.5,130.62c-.14,0-.27-.02-.41-.04l-20.66-4.13c-1.12-.23-1.84-1.31-1.62-2.43.22-1.12,1.32-1.84,2.44-1.63l20.66,4.13c1.12.23,1.84,1.32,1.62,2.44-.19.99-1.06,1.66-2.02,1.66Z"/>
    <path class="cls-2" d="M94.5,143.02c-.14,0-.27,0-.41-.04l-20.66-4.14c-1.12-.22-1.84-1.3-1.62-2.43.22-1.12,1.32-1.84,2.44-1.62l20.66,4.13c1.12.22,1.84,1.31,1.62,2.43-.19.99-1.06,1.66-2.02,1.66Z"/>
    <path class="cls-2" d="M94.5,155.42c-.14,0-.27,0-.41-.04l-20.66-4.14c-1.12-.22-1.84-1.31-1.62-2.44.22-1.12,1.32-1.83,2.44-1.62l20.66,4.14c1.12.22,1.84,1.3,1.62,2.43-.19.98-1.06,1.66-2.02,1.66Z"/>
    <path class="cls-2" d="M127.57,118.22c-.97,0-1.83-.68-2.02-1.66-.22-1.12.5-2.2,1.62-2.43l20.66-4.14c1.13-.22,2.21.5,2.43,1.62.22,1.12-.5,2.21-1.61,2.44l-20.67,4.13c-.13.04-.27.04-.41.04Z"/>
    <path class="cls-2" d="M127.57,130.62c-.97,0-1.83-.67-2.02-1.66-.22-1.12.5-2.2,1.62-2.44l20.66-4.13c1.13-.22,2.21.5,2.43,1.63.22,1.12-.5,2.2-1.61,2.43l-20.67,4.13c-.13.03-.27.04-.41.04Z"/>
    <path class="cls-2" d="M127.57,143.02c-.97,0-1.83-.67-2.02-1.66-.22-1.12.5-2.2,1.62-2.43l20.66-4.13c1.13-.22,2.21.5,2.43,1.62.22,1.12-.5,2.2-1.61,2.43l-20.67,4.14c-.13.03-.27.04-.41.04Z"/>
    <path class="cls-2" d="M127.57,155.42c-.97,0-1.83-.68-2.02-1.66-.22-1.12.5-2.21,1.62-2.43l20.66-4.14c1.13-.22,2.21.5,2.43,1.62.22,1.12-.5,2.21-1.61,2.44l-20.67,4.14c-.13.03-.27.04-.41.04Z"/>
    <path class="cls-2" d="M115.17,203h-8.27c-4.99,0-9.17-3.55-10.12-8.27h-56.01c-1.15,0-2.07-.93-2.07-2.07v-80.65c0-1.15.93-2.07,2.07-2.07h16.53c1.14,0,2.06.92,2.06,2.07s-.93,2.06-2.06,2.06h-14.47v76.52h55.8c1.14,0,2.06.93,2.06,2.07,0,3.42,2.78,6.21,6.2,6.21h8.27c3.42,0,6.2-2.79,6.2-6.21,0-1.14.93-2.07,2.07-2.07h55.8v-76.52h-14.47c-1.14,0-2.06-.93-2.06-2.06s.93-2.07,2.06-2.07h16.53c1.15,0,2.07.92,2.07,2.07v80.65c0,1.14-.93,2.07-2.07,2.07h-56.01c-.96,4.71-5.13,8.27-10.12,8.27Z"/>
    <path class="cls-2" d="M164.77,19.06c2.28,0,4.14,1.85,4.14,4.14s-1.85,4.13-4.14,4.13-4.13-1.84-4.13-4.13,1.84-4.14,4.13-4.14Z"/>
    <path class="cls-2" d="M181.3,72.79c2.29,0,4.14,1.85,4.14,4.14s-1.85,4.14-4.14,4.14-4.13-1.85-4.13-4.14,1.85-4.14,4.13-4.14Z"/>
    <path class="cls-2" d="M61.43,72.79c2.28,0,4.13,1.85,4.13,4.14s-1.85,4.14-4.13,4.14-4.13-1.85-4.13-4.14,1.85-4.14,4.13-4.14Z"/>
    <path class="cls-2" d="M49.03,27.33c2.28,0,4.14,1.85,4.14,4.14s-1.85,4.13-4.14,4.13-4.13-1.85-4.13-4.13,1.85-4.14,4.13-4.14Z"/>
    <path class="cls-2" d="M24.23,97.6c2.28,0,4.14,1.85,4.14,4.13s-1.85,4.13-4.14,4.13-4.13-1.84-4.13-4.13,1.85-4.13,4.13-4.13Z"/>
    <path class="cls-2" d="M111.03,180.22c-.29,0-.58-.05-.85-.17-26.71-11.98-51.74-.15-51.99-.04-.63.32-1.39.27-2-.11-.6-.37-.97-1.04-.97-1.75v-82.67c0-.77.43-1.49,1.12-1.84.83-.42,20.67-10.44,43.71-4.52,1.1.28,1.77,1.4,1.48,2.51-.28,1.11-1.41,1.76-2.51,1.48-18.55-4.76-35.28,1.74-39.68,3.69v78.24c2.9-1.08,7.78-2.65,14-3.63,8.73-1.38,21.77-1.78,35.6,3.63v-73.32c0-1.14.93-2.07,2.07-2.07s2.07.93,2.07,2.07v76.43c0,.69-.36,1.35-.94,1.74-.34.22-.73.32-1.12.32Z"/>
    <path class="cls-2" d="M111.03,180.22c-.39,0-.78-.11-1.12-.32-.58-.39-.94-1.04-.94-1.74v-76.43c0-1.14.93-2.07,2.07-2.07s2.07.93,2.07,2.07v73.32c13.84-5.41,26.88-5.01,35.61-3.64,6.22.99,11.09,2.56,13.99,3.64v-78.24c-4.4-1.94-21.17-8.43-39.67-3.69-1.11.28-2.23-.38-2.52-1.48-.28-1.11.38-2.23,1.49-2.51,23.03-5.92,42.88,4.1,43.71,4.53.69.34,1.12,1.06,1.12,1.83v82.67c0,.71-.36,1.38-.97,1.75-.6.38-1.36.42-2,.11-.25-.12-25.27-11.94-51.99.04-.27.12-.56.17-.85.17Z"/>
    <path class="cls-2" d="M122.52,103.8h-22.96c-1.14,0-2.06-.93-2.06-2.07v-19.1c-5.83-2.51-10.82-6.57-14.49-11.81-4.04-5.77-6.18-12.54-6.18-19.61,0-18.86,15.35-34.22,34.22-34.22s34.21,15.35,34.21,34.22c0,7.07-2.13,13.84-6.17,19.61-3.67,5.24-8.66,9.3-14.49,11.81v19.1c0,1.14-.92,2.07-2.06,2.07ZM101.62,99.66h18.83v-18.42c0-.85.53-1.63,1.33-1.93,11.57-4.42,19.34-15.71,19.34-28.1,0-16.59-13.5-30.08-30.08-30.08s-30.08,13.49-30.08,30.08c0,12.38,7.77,23.67,19.34,28.1.8.31,1.33,1.07,1.33,1.93v18.42h0Z"/>
    <path class="cls-2" d="M99.55,91.4c-1.14,0-2.06-.93-2.06-2.08s.93-2.06,2.06-2.06h22.96c1.14,0,2.07.93,2.07,2.06s-.93,2.07-2.07,2.07h-22.96Z"/>
    <path class="cls-2" d="M111.03,91.4c-1.14,0-2.07-.92-2.07-2.07v-39.26c0-2.29-1.85-4.14-4.13-4.14s-4.14,1.85-4.14,4.14v2.06c0,1.14-.92,2.08-2.06,2.08s-2.07-.94-2.07-2.08v-2.06c0-4.56,3.71-8.28,8.27-8.28s8.26,3.71,8.26,8.28v39.26c0,1.15-.92,2.07-2.06,2.07Z"/>
    <path class="cls-2" d="M111.03,91.4c-1.14,0-2.07-.92-2.07-2.07v-39.26c0-4.56,3.71-8.28,8.27-8.28s8.27,3.71,8.27,8.28v2.06c0,1.14-.93,2.08-2.07,2.08s-2.07-.94-2.07-2.08v-2.06c0-2.29-1.85-4.14-4.13-4.14s-4.14,1.85-4.14,4.14v39.26c0,1.15-.92,2.07-2.06,2.07Z"/>
    <path class="cls-2" d="M32.5,78.99c-5.7,0-10.33-4.63-10.33-10.33s4.64-10.33,10.33-10.33,10.34,4.64,10.34,10.33-4.64,10.33-10.34,10.33ZM32.5,62.46c-3.42,0-6.2,2.79-6.2,6.2s2.78,6.21,6.2,6.21,6.2-2.79,6.2-6.21-2.77-6.2-6.2-6.2Z"/>
    <path class="cls-2" d="M187.51,62.46c-6.84,0-12.4-5.56-12.4-12.39s5.56-12.4,12.4-12.4,12.4,5.56,12.4,12.4-5.56,12.39-12.4,12.39ZM187.51,41.79c-4.56,0-8.27,3.71-8.27,8.28s3.71,8.26,8.27,8.26,8.27-3.7,8.27-8.26-3.71-8.28-8.27-8.28Z"/>
  </g>
</svg>