<?xml version="1.0" encoding="UTF-8"?>
<svg id="Layer_1" data-name="Layer 1" xmlns="http://www.w3.org/2000/svg" viewBox="0 0 220 219.99">
  <defs>
    <style>
      .cls-1 {
        fill: none;
      }

      .cls-2 {
        fill: #64748b;
      }
    </style>
  </defs>
  <rect class="cls-1" x="-56.24" y="-56.24" width="332.48" height="332.47"/>
  <g>
    <path class="cls-2" d="M202.6,53.62H17.4c-1.12,0-2.01-.9-2.01-2.01s.9-2.01,2.01-2.01h185.2c1.11,0,2.02.9,2.02,2.01s-.91,2.01-2.02,2.01Z"/>
    <rect class="cls-2" x="33.5" y="31.49" width="8.06" height="8.05"/>
    <rect class="cls-2" x="45.58" y="31.49" width="8.05" height="8.05"/>
    <rect class="cls-2" x="57.66" y="31.49" width="8.05" height="8.05"/>
    <path class="cls-2" d="M182.46,39.54h0c-2.22,0-4.02-1.8-4.02-4.03h0c0-2.22,1.8-4.02,4.02-4.02h0c2.23,0,4.03,1.8,4.03,4.02h0c0,2.23-1.8,4.03-4.03,4.03Z"/>
    <path class="cls-2" d="M170.39,37.52h-80.52c-1.12,0-2.01-.9-2.01-2.01s.9-2.01,2.01-2.01h80.52c1.12,0,2.01.9,2.01,2.01s-.9,2.01-2.01,2.01Z"/>
    <path class="cls-2" d="M187.44,169.45h-38.7c-1.12,0-2.01-.91-2.01-2.02s.9-2.01,2.01-2.01h38.7c7.25,0,13.14-5.91,13.14-13.16V34.57c0-7.26-5.89-13.15-13.14-13.15H32.57c-7.25,0-13.15,5.89-13.15,13.15v117.69c0,7.25,5.9,13.16,13.15,13.16h38.69c1.12,0,2.01.91,2.01,2.01s-.9,2.02-2.01,2.02h-38.69c-9.47,0-17.18-7.71-17.18-17.18V34.57c0-9.47,7.71-17.17,17.18-17.17h154.87c9.46,0,17.18,7.7,17.18,17.17v117.69c0,9.48-7.72,17.19-17.18,17.19Z"/>
    <rect class="cls-2" x="29.47" y="63.7" width="32.21" height="8.05"/>
    <rect class="cls-2" x="45.58" y="75.77" width="16.1" height="8.05"/>
    <rect class="cls-2" x="37.53" y="87.85" width="24.15" height="8.06"/>
    <rect class="cls-2" x="65.71" y="63.7" width="32.2" height="8.05"/>
    <rect class="cls-2" x="101.95" y="63.7" width="16.1" height="8.05"/>
    <rect class="cls-2" x="65.71" y="75.77" width="32.2" height="8.05"/>
    <rect class="cls-2" x="65.71" y="87.85" width="16.11" height="8.06"/>
    <rect class="cls-2" x="33.5" y="180.45" width="16.11" height="8.05"/>
    <rect class="cls-2" x="53.63" y="180.45" width="12.08" height="8.05"/>
    <rect class="cls-2" x="25.45" y="192.53" width="24.16" height="8.05"/>
    <rect class="cls-2" x="53.63" y="192.53" width="12.08" height="8.05"/>
    <rect class="cls-2" x="170.39" y="180.45" width="16.1" height="8.05"/>
    <rect class="cls-2" x="154.28" y="180.45" width="12.09" height="8.05"/>
    <rect class="cls-2" x="170.39" y="192.53" width="24.16" height="8.05"/>
    <rect class="cls-2" x="154.28" y="192.53" width="12.09" height="8.05"/>
    <path class="cls-2" d="M120.68,202.59h-21.35c-.54,0-1.07-.22-1.45-.62-2.96-3.08-5.68-5.86-8.08-8.31-24.39-24.98-24.63-25.67-24.52-74.74,0-3.52,0-7.28,0-11.33,0-.58.26-1.14.71-1.52.44-.39,1.04-.56,1.61-.47,4.55.68,9.13,1.03,13.6,1.03,7.52,0,14.14-1,19.17-2.88.23-.09.47-.13.72-.13h17.81c.24,0,.48.04.71.13,5.02,1.88,11.66,2.88,19.17,2.88,4.47,0,9.05-.35,13.61-1.03.58-.09,1.16.08,1.6.47.45.38.7.94.7,1.52,0,4.05,0,7.81.02,11.33.12,49.07-.12,49.76-24.52,74.74-2.4,2.45-5.12,5.23-8.08,8.31-.37.4-.9.62-1.44.62ZM100.19,198.56h19.63c2.73-2.84,5.26-5.42,7.5-7.72,11.79-12.07,17.71-18.13,20.56-26.85,2.89-8.87,2.86-20.96,2.82-45.06,0-2.83-.02-5.85-.02-9.02-3.98.5-7.98.75-11.89.75-7.82,0-14.81-1.03-20.23-3h-17.11c-5.42,1.97-12.41,3-20.24,3-3.91,0-7.9-.25-11.88-.75,0,3.17,0,6.19-.02,9.02-.06,24.11-.08,36.19,2.81,45.06,2.85,8.72,8.78,14.78,20.57,26.85,2.24,2.29,4.77,4.87,7.5,7.72Z"/>
    <path class="cls-2" d="M117.04,186.48h-14.1c-.54,0-1.07-.22-1.44-.61-1.95-2.03-3.74-3.88-5.33-5.49-16.47-16.87-16.46-17.48-16.4-49.87,0-2.31,0-4.8,0-7.47,0-.59.25-1.14.7-1.52.44-.4,1.03-.56,1.62-.47,8.1,1.22,16.06.78,21.3-1.18.23-.09.47-.13.72-.13h11.77c1.12,0,2.01.91,2.01,2.01s-.9,2.01-2.01,2.01h-11.41c-5.33,1.89-12.88,2.46-20.66,1.57,0,1.82,0,3.54,0,5.18-.04,15.86-.05,23.82,1.83,29.57,1.83,5.61,5.7,9.58,13.42,17.48,1.43,1.46,3.02,3.09,4.76,4.88h13.24c1.12,0,2.01.9,2.01,2.02s-.9,2.01-2.01,2.01Z"/>
  </g>
</svg>