<?xml version="1.0" encoding="UTF-8"?>
<svg id="Layer_1" data-name="Layer 1" xmlns="http://www.w3.org/2000/svg" viewBox="0 0 220 219.99">
  <defs>
    <style>
      .cls-1 {
        fill: none;
      }

      .cls-2 {
        fill: #0ea5e9;
      }
    </style>
  </defs>
  <rect class="cls-1" x="-56.23" y="-56.24" width="332.47" height="332.47"/>
  <g>
    <rect class="cls-2" x="95.54" y="25.27" width="16.53" height="8.26"/>
    <rect class="cls-2" x="116.2" y="25.27" width="8.28" height="8.26"/>
    <rect class="cls-2" x="149.28" y="186.47" width="8.27" height="8.28"/>
    <rect class="cls-2" x="161.67" y="186.47" width="8.27" height="8.28"/>
    <rect class="cls-2" x="174.07" y="186.47" width="8.27" height="8.28"/>
    <path class="cls-2" d="M70.73,157.53c2.29,0,4.14,1.85,4.14,4.14s-1.85,4.14-4.14,4.14-4.14-1.85-4.14-4.14,1.85-4.14,4.14-4.14Z"/>
    <path class="cls-2" d="M112.07,190.6c2.28,0,4.13,1.85,4.13,4.14s-1.84,4.13-4.13,4.13-4.14-1.85-4.14-4.13,1.85-4.14,4.14-4.14Z"/>
    <path class="cls-2" d="M149.28,17c2.28,0,4.13,1.85,4.13,4.14s-1.85,4.14-4.13,4.14-4.13-1.85-4.13-4.14,1.84-4.14,4.13-4.14Z"/>
    <path class="cls-2" d="M62.47,17c2.28,0,4.13,1.85,4.13,4.14s-1.84,4.14-4.13,4.14-4.13-1.85-4.13-4.14,1.84-4.14,4.13-4.14Z"/>
    <path class="cls-2" d="M58.34,157.53c2.28,0,4.13,1.85,4.13,4.14s-1.84,4.14-4.13,4.14-4.14-1.85-4.14-4.14,1.85-4.14,4.14-4.14Z"/>
    <path class="cls-2" d="M58.34,145.14c2.28,0,4.13,1.85,4.13,4.14s-1.84,4.13-4.13,4.13-4.14-1.85-4.14-4.13,1.85-4.14,4.14-4.14Z"/>
    <path class="cls-2" d="M17,158.77c-1.14,0-2.06-.93-2.06-2.07V30.17c0-8.4,6.49-15.23,14.48-15.23s14.45,6.48,14.45,14.76v12.4c0,1.14-.93,2.07-2.06,2.07h0c-1.15,0-2.08-.93-2.08-2.07v-12.4c0-6.06-4.43-10.64-10.31-10.64s-10.36,4.99-10.36,11.11v126.54c0,1.14-.92,2.07-2.06,2.07Z"/>
    <path class="cls-2" d="M203,180.27H37.67c-6.32,0-12.1-2.46-16.28-6.93-4.02-4.32-6.31-10.2-6.44-16.57v-.18c.52-7.9,6.88-14.09,14.47-14.09,3.98,0,7.66,1.88,10.31,4.86V41.8c0-1.14.93-2.07,2.08-2.07h161.19c1.15,0,2.08.93,2.08,2.07v136.4c0,.65-.31,1.26-.82,1.65-.36.28-.8.42-1.26.42ZM19.08,156.78c.27,11.22,8.07,19.35,18.59,19.35h163.27V43.86H43.87v113.67c0,1.12-.89,2.04-2.01,2.07-1.12.04-2.06-.83-2.12-1.95-.34-6.06-4.96-11-10.32-11s-9.91,4.44-10.34,10.14Z"/>
    <path class="cls-2" d="M58.34,138.94c-1.14,0-2.07-.93-2.07-2.07V41.8c0-1.14.93-2.07,2.07-2.07s2.06.93,2.06,2.07v95.07c0,1.14-.92,2.07-2.06,2.07Z"/>
    <path class="cls-2" d="M203,163.73h-119.86c-1.14,0-2.07-.92-2.07-2.06s.93-2.07,2.07-2.07h119.86c1.15,0,2.08.93,2.08,2.07s-.93,2.06-2.08,2.06Z"/>
    <path class="cls-2" d="M176.14,31.47c-4.56,0-8.27-3.71-8.27-8.27s3.71-8.27,8.27-8.27,8.27,3.71,8.27,8.27-3.71,8.27-8.27,8.27ZM176.14,19.06c-2.28,0-4.13,1.86-4.13,4.14s1.84,4.14,4.13,4.14,4.13-1.86,4.13-4.14-1.85-4.14-4.13-4.14Z"/>
    <path class="cls-2" d="M56.27,205.07c-4.56,0-8.27-3.7-8.27-8.27s3.71-8.26,8.27-8.26,8.27,3.7,8.27,8.26-3.71,8.27-8.27,8.27ZM56.27,192.67c-2.29,0-4.13,1.84-4.13,4.13s1.84,4.14,4.13,4.14,4.13-1.86,4.13-4.14-1.85-4.13-4.13-4.13Z"/>
    <path class="cls-2" d="M107.94,109.99h-33.06c-1.14,0-2.07-.92-2.07-2.06v-33.06c0-1.15.93-2.08,2.07-2.08h33.06c1.14,0,2.07.93,2.07,2.08v33.06c0,1.14-.93,2.06-2.07,2.06ZM76.94,105.86h28.93v-28.94h-28.93v28.94Z"/>
    <path class="cls-2" d="M107.94,93.46c-10.26,0-18.6-8.34-18.6-18.59s8.34-18.61,18.6-18.61,18.6,8.35,18.6,18.61-8.35,18.59-18.6,18.59ZM107.94,60.4c-7.98,0-14.46,6.49-14.46,14.47s6.49,14.45,14.46,14.45,14.47-6.49,14.47-14.45-6.49-14.47-14.47-14.47Z"/>
    <path class="cls-2" d="M121.42,142.75c-.54,0-1.07-.21-1.46-.61-.57-.55-.75-1.37-.5-2.11l5.84-17.54c.11-.31.28-.58.5-.81l45.99-45.98c1.38-1.39,3.21-2.14,5.16-2.14s3.78.76,5.16,2.14l4.29,4.28c2.84,2.85,2.84,7.48,0,10.34l-45.99,45.98c-.23.22-.5.4-.81.5l-17.53,5.85c-.22.07-.43.1-.66.1ZM129.07,124.27l-4.39,13.16,13.16-4.39,45.64-45.64c1.23-1.24,1.23-3.25,0-4.48l-4.29-4.29c-.6-.59-1.39-.94-2.24-.94s-1.65.34-2.24.94l-45.64,45.64Z"/>
    <path class="cls-2" d="M176.95,98.91c-.52,0-1.06-.2-1.46-.6l-11.69-11.69c-.81-.8-.81-2.11,0-2.92.8-.8,2.11-.8,2.92,0l11.68,11.69c.81.8.81,2.12,0,2.92-.4.4-.93.6-1.46.6Z"/>
    <path class="cls-2" d="M121.42,143.07h-34.15c-1.13,0-2.06-.93-2.06-2.07s.93-2.06,2.06-2.06h34.15c1.14,0,2.06.93,2.06,2.06s-.92,2.07-2.06,2.07Z"/>
    <path class="cls-2" d="M190.61,151.33h-28.94c-1.14,0-2.07-.93-2.07-2.06s.93-2.08,2.07-2.08h28.94c1.14,0,2.07.93,2.07,2.08s-.93,2.06-2.07,2.06Z"/>
    <path class="cls-2" d="M190.61,138.94h-20.67c-1.13,0-2.06-.93-2.06-2.07s.93-2.07,2.06-2.07h20.67c1.14,0,2.07.93,2.07,2.07s-.93,2.07-2.07,2.07Z"/>
    <path class="cls-2" d="M190.61,126.53h-12.39c-1.15,0-2.07-.93-2.07-2.07s.92-2.06,2.07-2.06h12.39c1.14,0,2.07.92,2.07,2.06s-.93,2.07-2.07,2.07Z"/>
  </g>
</svg>